<?xml version="1.0" standalone="no"?>
<!DOCTYPE svg PUBLIC "-//W3C//DTD SVG 20010904//EN"
 "http://www.w3.org/TR/2001/REC-SVG-20010904/DTD/svg10.dtd">
<svg version="1.0" xmlns="http://www.w3.org/2000/svg"
 width="500.000000pt" height="500.000000pt" viewBox="0 0 500.000000 500.000000"
 preserveAspectRatio="xMidYMid meet">
<metadata>
Created by potrace 1.14, written by Peter Selinger 2001-2017
</metadata>
<g transform="translate(0.000000,500.000000) scale(0.100000,-0.100000)"
fill="#000000" stroke="none">
<path d="M1895 4403 c-141 -14 -352 -70 -468 -124 -400 -187 -699 -553 -795
-974 -29 -128 -33 -155 -37 -295 -9 -323 91 -632 288 -895 57 -76 1126 -1154
1192 -1203 17 -12 50 -37 75 -55 151 -112 404 -217 580 -242 25 -4 63 -10 85
-14 48 -9 291 -7 355 3 84 13 255 58 330 88 329 130 608 387 763 705 43 87
102 265 117 348 5 33 13 71 16 85 3 14 7 86 9 160 8 327 -88 625 -288 896 -70
96 -1143 1167 -1237 1236 -189 138 -389 224 -615 264 -81 15 -294 24 -370 17z"/>
</g>
</svg>
